HIERARCHY
ROOT Hips
{
	OFFSET 0.000000 0.000000 0.000000
	CHANNELS 6 Xposition Yposition Zposition Xrotation Yrotation Zrotation
	JOINT LeftUpLeg_virtual
	{
		OFFSET 0.000000 0.000000 0.000000
		CHANNELS 3 Xrotation Yrotation Zrotation
		JOINT LeftUpLeg
		{
			OFFSET 15.427100 -6.655098 0.678600
			CHANNELS 3 Xrotation Yrotation Zrotation
			JOINT LeftLeg
			{
				OFFSET 4.081073 -39.591068 13.024000
				CHANNELS 3 Xrotation Yrotation Zrotation
				JOINT LeftFoot
				{
					OFFSET -4.081074 -37.707932 -15.979700
					CHANNELS 3 Xrotation Yrotation Zrotation
					JOINT LeftToeBase
					{
						OFFSET 5.346399 -15.068900 20.645000
						CHANNELS 3 Xrotation Yrotation Zrotation
						JOINT LeftToe_End
						{
							OFFSET 2.754700 0.931300 11.300900
							CHANNELS 3 Xrotation Yrotation Zrotation
							End Site
							{
								OFFSET 0 0 0
							}
						}
					}
				}
			}
		}
	}
	JOINT RightUpLeg_virtual
	{
		OFFSET 0.000000 0.000000 0.000000
		CHANNELS 3 Xrotation Yrotation Zrotation
		JOINT RightUpLeg
		{
			OFFSET -15.569500 -6.655098 0.678600
			CHANNELS 3 Xrotation Yrotation Zrotation
			JOINT RightLeg
			{
				OFFSET -4.081825 -39.591045 13.023800
				CHANNELS 3 Xrotation Yrotation Zrotation
				JOINT RightFoot
				{
					OFFSET 4.081824 -37.707954 -15.979600
					CHANNELS 3 Xrotation Yrotation Zrotation
					JOINT RightToeBase
					{
						OFFSET -5.346400 -15.068900 20.645000
						CHANNELS 3 Xrotation Yrotation Zrotation
						JOINT RightToe_End
						{
							OFFSET -2.754700 0.931300 11.300900
							CHANNELS 3 Xrotation Yrotation Zrotation
							End Site
							{
								OFFSET 0 0 0
							}
						}
					}
				}
			}
		}
	}
	JOINT Spine_virtual
	{
		OFFSET 0.000000 0.000000 0.000000
		CHANNELS 3 Xrotation Yrotation Zrotation
		JOINT Spine
		{
			OFFSET -0.279200 12.230698 -2.892100
			CHANNELS 3 Xrotation Yrotation Zrotation
			JOINT Spine1
			{
				OFFSET -0.232667 10.192268 -1.242267
				CHANNELS 3 Xrotation Yrotation Zrotation
				JOINT Spine1_split
				{
					OFFSET -0.232667 10.192268 -1.242267
					CHANNELS 3 Xrotation Yrotation Zrotation
					JOINT Spine2
					{
						OFFSET -0.232667 10.192268 -1.242267
						CHANNELS 3 Xrotation Yrotation Zrotation
						JOINT Neck_virtual
						{
							OFFSET 0.000000 0.000000 0.000000
							CHANNELS 3 Xrotation Yrotation Zrotation
							JOINT Neck
							{
								OFFSET -0.418800 17.814194 8.416900
								CHANNELS 3 Xrotation Yrotation Zrotation
								JOINT Head
								{
									OFFSET 0.000000 7.031097 3.806800
									CHANNELS 3 Xrotation Yrotation Zrotation
									JOINT HeadTop_End
									{
										OFFSET 0.000000 24.646606 12.978600
										CHANNELS 3 Xrotation Yrotation Zrotation
										End Site
										{
											OFFSET 0 0 0
										}
									}
								}
							}
						}
						JOINT LeftShoulder_virtual
						{
							OFFSET 0.000000 0.000000 0.000000
							CHANNELS 3 Xrotation Yrotation Zrotation
							JOINT LeftShoulder
							{
								OFFSET 8.476499 7.247704 -3.868750
								CHANNELS 3 Xrotation Yrotation Zrotation
								JOINT LeftShoulder_split
								{
									OFFSET 8.476499 7.247704 -3.868750
									CHANNELS 3 Xrotation Yrotation Zrotation
									JOINT LeftArm
									{
										OFFSET 9.308998 -2.777710 0.208600
										CHANNELS 3 Xrotation Yrotation Zrotation
										JOINT LeftForeArm
										{
											OFFSET 29.972298 0.000000 0.000000
											CHANNELS 3 Xrotation Yrotation Zrotation
											JOINT LeftHand
											{
												OFFSET 26.026505 0.000000 0.000000
												CHANNELS 3 Xrotation Yrotation Zrotation
												End Site
												{
													OFFSET 0 0 0
												}
											}
										}
									}
								}
							}
						}
						JOINT RightShoulder_virtual
						{
							OFFSET 0.000000 0.000000 0.000000
							CHANNELS 3 Xrotation Yrotation Zrotation
							JOINT RightShoulder
							{
								OFFSET -7.570500 7.247704 -3.868750
								CHANNELS 3 Xrotation Yrotation Zrotation
								JOINT RightShoulder_split
								{
									OFFSET -7.570500 7.247704 -3.868750
									CHANNELS 3 Xrotation Yrotation Zrotation
									JOINT RightArm
									{
										OFFSET -9.308998 -2.777710 0.208500
										CHANNELS 3 Xrotation Yrotation Zrotation
										JOINT RightForeArm
										{
											OFFSET -29.972300 0.000000 0.000000
											CHANNELS 3 Xrotation Yrotation Zrotation
											JOINT RightHand
											{
												OFFSET -26.026505 0.000000 0.000000
												CHANNELS 3 Xrotation Yrotation Zrotation
												End Site
												{
													OFFSET 0 0 0
												}
											}
										}
									}
								}
							}
						}
					}
				}
			}
		}
	}
}
MOTION
Frames: 11
Frame Time: 0.03333333
-0.185426 92.669533 -0.167542 0.000000 0.000000 0.000000 -5.618104 -6.293101 3.521737 -8.105093 11.041767 6.912203 15.222630 6.803596 0.153877 1.362452 1.090912 -5.968000 -0.021239 0.115305 -1.322913 0.000000 0.000000 0.000000 -5.159754 -4.767825 3.747347 8.216492 -15.088033 -8.562718 17.193531 -8.361364 -6.938160 -18.289225 -5.468746 7.173412 -4.116922 0.357303 0.025253 0.000000 0.000000 0.000000 -5.780660 -6.997831 3.247780 5.199184 1.811145 -2.339223 0.844085 0.333793 -0.340743 0.813070 0.344128 -0.017551 0.000000 0.000000 0.000000 1.147541 0.735948 -0.620979 1.547978 5.719205 0.243525 4.301925 -10.683622 3.617409 0.000000 0.000000 0.000000 1.005020 0.720413 -0.858869 -0.153714 -15.685881 -18.084377 -1.370108 -1.274718 -3.005315 13.802288 -1.910685 -32.827556 99.791536 -89.423589 99.349773 0.000000 0.000000 0.000000 0.887382 0.624985 -0.746123 0.461712 15.390043 12.434200 2.182700 2.901555 0.513819 7.482731 21.058235 38.513716 -173.889786 78.860142 173.313427 0.000000 0.000000 0.000000 
0.281245 92.465553 -0.337734 0.000000 0.000000 0.000000 -5.603433 -6.586897 3.561140 -8.103538 10.385408 6.691951 15.611171 6.642781 0.331270 0.943207 1.301101 -6.195433 -0.140330 0.077849 -1.218636 0.000000 0.000000 0.000000 -5.353333 -4.760037 3.777402 8.010340 -15.539988 -8.897235 17.232301 -8.365487 -6.956686 -18.310772 -5.485412 6.988242 -3.532156 0.296572 0.020672 0.000000 0.000000 0.000000 -5.894812 -7.055963 3.181861 5.306474 1.769302 -2.291803 0.898163 0.301224 -0.302897 0.784502 0.381868 -0.006235 0.000000 0.000000 0.000000 1.102162 0.691106 -0.589384 1.487117 5.670447 0.185799 4.294527 -10.573094 3.544287 0.000000 0.000000 0.000000 1.006024 0.684408 -0.837245 -0.160068 -15.704791 -18.068335 -1.198906 -1.331661 -2.985298 13.907102 -1.714095 -32.979626 105.620174 -89.327400 105.162940 0.000000 0.000000 0.000000 0.911387 0.613221 -0.728863 0.459328 15.563153 12.558353 2.214460 2.997034 0.712733 7.600326 21.229264 38.651597 -173.841237 79.124723 173.267392 0.000000 0.000000 0.000000 
0.835487 91.997589 -0.349892 0.000000 0.000000 0.000000 -5.633243 -6.999076 3.670092 -8.499828 9.920600 6.387275 16.772025 6.502581 0.495574 -0.062750 1.906817 -6.386930 -0.236822 0.069944 -1.185121 0.000000 0.000000 0.000000 -5.535150 -4.755993 3.867139 7.477539 -15.851966 -9.533442 17.811057 -8.291751 -6.919509 -18.831738 -5.623518 6.759647 -3.160054 0.276002 -0.010960 0.000000 0.000000 0.000000 -6.060983 -7.169349 3.186045 5.445222 1.623041 -2.262088 0.966796 0.193825 -0.230089 0.751836 0.389996 -0.005715 0.000000 0.000000 0.000000 1.074960 0.575699 -0.518859 1.489773 5.614801 0.057632 4.256751 -10.491574 3.231643 0.000000 0.000000 0.000000 1.030418 0.572367 -0.770324 -0.172761 -15.729391 -18.083066 -1.065439 -1.349612 -2.893187 14.232950 -1.296912 -33.147721 125.273579 -89.097127 124.802951 0.000000 0.000000 0.000000 0.933120 0.522208 -0.660875 0.470732 15.688687 12.641975 2.210104 3.061558 0.771358 7.625120 21.738168 38.911205 -173.804149 79.554014 173.276012 0.000000 0.000000 0.000000 
1.410571 91.370575 -0.294800 0.000000 0.000000 0.000000 -5.702319 -7.448551 3.847841 -9.262050 9.715320 5.984527 18.368877 6.384582 0.608444 -1.505018 2.792722 -6.564315 -0.250829 0.089712 -1.206866 0.000000 0.000000 0.000000 -5.671471 -4.897157 4.017483 6.635894 -15.959524 -10.413307 18.771431 -8.086528 -6.820155 -19.631294 -5.807782 6.571775 -3.106955 0.290082 -0.062646 0.000000 0.000000 0.000000 -6.194382 -7.350696 3.260187 5.563485 1.407304 -2.259946 1.032620 0.031072 -0.136205 0.731339 0.439770 -0.009743 0.000000 0.000000 0.000000 1.057643 0.407889 -0.427667 1.545380 5.557768 -0.129002 4.129443 -10.429749 2.692719 0.000000 0.000000 0.000000 1.070892 0.399671 -0.668743 -0.184592 -15.765646 -18.112989 -1.005792 -1.365668 -2.802047 14.734702 -0.701281 -33.331678 142.547154 -88.632121 142.068290 0.000000 0.000000 0.000000 0.944874 0.366079 -0.554235 0.509261 15.754151 12.670767 2.172382 3.026085 0.703177 7.490703 22.446010 39.309832 -173.746216 80.054796 173.296871 0.000000 0.000000 0.000000 
1.993481 90.678963 -0.303555 0.000000 0.000000 0.000000 -5.799614 -7.959360 4.041223 -10.303772 9.743038 5.513309 20.101703 6.239099 0.646815 -3.054620 3.824482 -6.829993 -0.219589 0.127726 -1.230403 0.000000 0.000000 0.000000 -5.744887 -5.291955 4.208564 5.506071 -15.836632 -11.452492 19.935189 -7.704204 -6.649894 -20.434254 -5.969243 6.543898 -3.247314 0.328823 -0.102696 0.000000 0.000000 0.000000 -6.235084 -7.636922 3.393614 5.622245 1.152779 -2.290519 1.084121 -0.170461 -0.035234 0.767287 0.496087 -0.004135 0.000000 0.000000 0.000000 1.044338 0.205081 -0.331735 1.626112 5.490791 -0.347419 3.874672 -10.403274 1.974911 0.000000 0.000000 0.000000 1.117720 0.186349 -0.551718 -0.192215 -15.816186 -18.150744 -1.007592 -1.418130 -2.742081 15.377208 0.047497 -33.539309 152.880083 -87.961061 152.392312 0.000000 0.000000 0.000000 0.952592 0.167050 -0.427030 0.579252 15.765453 12.649022 2.126010 2.938389 0.583507 7.199356 23.223123 39.868405 -173.634952 80.590864 173.289699 0.000000 0.000000 0.000000 
2.567148 90.026047 -0.466400 0.000000 0.000000 0.000000 -5.860676 -8.502065 4.214949 -11.506494 9.962289 5.006318 21.775592 6.037263 0.602559 -4.394476 4.878967 -7.189070 -0.191066 0.169805 -1.203061 0.000000 0.000000 0.000000 -5.732585 -5.957662 4.398766 4.099378 -15.531072 -12.555644 21.211475 -7.108419 -6.416167 -21.033407 -6.060838 6.742589 -3.400589 0.379480 -0.108836 0.000000 0.000000 0.000000 -6.150366 -8.039180 3.549448 5.599467 0.881394 -2.349304 1.117610 -0.398371 0.063181 0.745639 0.530694 0.045391 0.000000 0.000000 0.000000 1.033094 -0.014648 -0.240509 1.685811 5.394934 -0.568544 3.490171 -10.435353 1.134348 0.000000 0.000000 0.000000 1.160357 -0.050279 -0.434038 -0.198631 -15.875127 -18.191288 -1.052639 -1.503299 -2.708126 16.093075 0.894713 -33.767400 158.693612 -87.186169 158.192181 0.000000 0.000000 0.000000 0.951686 -0.055155 -0.295801 0.671181 15.754007 12.583481 2.102111 2.830645 0.442733 6.773711 23.969524 40.574189 -173.436699 81.163486 173.209718 0.000000 0.000000 0.000000 
3.137189 89.465698 -0.709202 0.000000 0.000000 0.000000 -5.862244 -9.037540 4.339659 -12.737010 10.294203 4.539946 23.276791 5.822580 0.505850 -5.349775 5.934316 -7.543579 -0.180577 0.207257 -1.130973 0.000000 0.000000 0.000000 -5.633409 -6.885840 4.553997 2.482739 -15.151156 -13.659307 22.544802 -6.308626 -6.157319 -21.364627 -6.092408 7.101154 -3.372429 0.436644 -0.065459 0.000000 0.000000 0.000000 -5.977796 -8.613456 3.691198 5.512041 0.605890 -2.425912 1.134358 -0.646747 0.156310 0.673672 0.534274 0.103021 0.000000 0.000000 0.000000 1.026325 -0.245634 -0.157435 1.707028 5.254246 -0.769568 3.011135 -10.555588 0.240149 0.000000 0.000000 0.000000 1.197194 -0.300690 -0.325674 -0.209841 -15.944790 -18.229577 -1.112121 -1.604741 -2.677358 16.807760 1.804918 -34.004155 162.274749 -86.364655 161.754002 0.000000 0.000000 0.000000 0.943113 -0.293713 -0.169598 0.770818 15.748393 12.495760 2.093698 2.711794 0.314512 6.255003 24.633670 41.395628 -173.112893 81.798475 173.008009 0.000000 0.000000 0.000000 
3.669649 88.993843 -1.018265 0.000000 0.000000 0.000000 -5.810354 -9.663953 4.397812 -13.864258 10.679911 4.200349 24.547609 5.659582 0.396890 -5.884606 6.992116 -7.793752 -0.181760 0.229478 -1.034570 0.000000 0.000000 0.000000 -5.457555 -7.856843 4.665762 0.730092 -14.851878 -14.692901 23.826633 -5.370071 -5.926918 -21.433576 -6.137090 7.518875 -3.110444 0.494665 0.016934 0.000000 0.000000 0.000000 -5.801476 -9.361438 3.791069 5.384350 0.337264 -2.520202 1.133112 -0.911813 0.239564 0.640629 0.510178 0.124393 0.000000 0.000000 0.000000 1.020682 -0.484642 -0.086538 1.695185 5.071462 -0.933153 2.481728 -10.797137 -0.641449 0.000000 0.000000 0.000000 1.232289 -0.556573 -0.229337 -0.220235 -16.025347 -18.256054 -1.162856 -1.667600 -2.659007 17.453357 2.735699 -34.216666 164.693264 -85.542006 164.149048 0.000000 0.000000 0.000000 0.935319 -0.539028 -0.055515 0.860315 15.759707 12.406294 2.063280 2.600827 0.233998 5.711077 25.243107 42.256591 -172.695186 82.489369 172.701702 0.000000 0.000000 0.000000 
4.159240 88.615372 -1.392853 0.000000 0.000000 0.000000 -5.714512 -10.387065 4.413862 -14.804532 11.047075 4.015853 25.526751 5.583778 0.313856 -6.114880 8.000375 -7.905754 -0.190140 0.232995 -0.923886 0.000000 0.000000 0.000000 -5.249103 -8.748298 4.714875 -1.118493 -14.784120 -15.627633 25.068539 -4.357995 -5.769649 -21.225267 -6.328574 7.942999 -2.704230 0.548677 0.101992 0.000000 0.000000 0.000000 -5.614539 -10.240337 3.840044 5.236798 0.076590 -2.628646 1.121490 -1.183949 0.307899 0.654528 0.447898 0.166565 0.000000 0.000000 0.000000 1.016071 -0.729612 -0.025476 1.676805 4.878665 -1.054586 1.956290 -11.171863 -1.464610 0.000000 0.000000 0.000000 1.275245 -0.814606 -0.144218 -0.222872 -16.110152 -18.272346 -1.223088 -1.687167 -2.662600 18.014040 3.643839 -34.380768 166.480438 -84.762169 165.915868 0.000000 0.000000 0.000000 0.933352 -0.786708 0.045658 0.932163 15.790059 12.337956 1.994123 2.510314 0.191858 5.190678 25.820077 43.076442 -172.230651 83.174902 172.331711 0.000000 0.000000 0.000000 
4.551777 88.338020 -1.788471 0.000000 0.000000 0.000000 -5.617050 -11.123774 4.399464 -15.518711 11.367997 3.987280 26.133603 5.546355 0.280981 -6.095546 8.908505 -8.025404 -0.197646 0.225085 -0.805542 0.000000 0.000000 0.000000 -5.054805 -9.557291 4.718643 -3.000668 -15.096764 -16.446252 26.292146 -3.353973 -5.718071 -20.751552 -6.814611 8.358977 -2.342614 0.590914 0.167956 0.000000 0.000000 0.000000 -5.463860 -11.169974 3.840471 5.085283 -0.189690 -2.735047 1.115843 -1.456526 0.362484 0.723541 0.384368 0.213967 0.000000 0.000000 0.000000 1.017309 -0.980099 0.029423 1.693863 4.699280 -1.127728 1.500985 -11.660569 -2.202805 0.000000 0.000000 0.000000 1.327953 -1.076009 -0.069229 -0.218980 -16.196376 -18.276007 -1.287227 -1.670216 -2.661549 18.509557 4.492594 -34.500399 167.879930 -84.013458 167.297875 0.000000 0.000000 0.000000 0.943010 -1.037987 0.137482 0.995055 15.836553 12.304126 1.896036 2.434467 0.154471 4.682647 26.346391 43.841055 -171.687583 83.830511 171.864772 0.000000 0.000000 0.000000 
4.813732 88.156166 -2.201283 0.000000 0.000000 0.000000 -5.548653 -11.828390 4.363293 -16.015122 11.626250 4.119282 26.398087 5.513315 0.284875 -5.881238 9.677494 -8.253576 -0.206683 0.215906 -0.666036 0.000000 0.000000 0.000000 -4.914391 -10.287153 4.691394 -4.851490 -15.911201 -17.178243 27.548941 -2.418266 -5.778661 -20.119738 -7.704032 8.678892 -2.072715 0.612545 0.207085 0.000000 0.000000 0.000000 -5.356377 -12.096506 3.804030 4.943299 -0.463031 -2.833379 1.125297 -1.724834 0.406417 0.805499 0.321295 0.243321 0.000000 0.000000 0.000000 1.029642 -1.232905 0.081358 1.760442 4.554896 -1.160375 1.133443 -12.222754 -2.845920 0.000000 0.000000 0.000000 1.389043 -1.342466 -0.003548 -0.206774 -16.266874 -18.268782 -1.367121 -1.647387 -2.641254 18.959695 5.254743 -34.573386 168.976162 -83.320241 168.379982 0.000000 0.000000 0.000000 0.959948 -1.292481 0.221584 1.051337 15.891407 12.297794 1.793604 2.363385 0.098125 4.184050 26.800136 44.538123 -171.024945 84.429894 171.255628 0.000000 0.000000 0.000000 
